<svg width="14" height="14" viewBox="0 0 14 14" fill="none" xmlns="http://www.w3.org/2000/svg">
<path d="M12.9404 6.90443L7.30894 1.27709C7.26839 1.23646 7.22023 1.20423 7.16721 1.18224C7.11419 1.16025 7.05735 1.14893 6.99995 1.14893C6.94255 1.14893 6.88572 1.16025 6.8327 1.18224C6.77968 1.20423 6.73151 1.23646 6.69097 1.27709L1.05952 6.90443C0.895459 7.06849 0.80249 7.29135 0.80249 7.52377C0.80249 8.00639 1.19487 8.39877 1.67749 8.39877H2.27085V12.4142C2.27085 12.6562 2.46636 12.8517 2.70835 12.8517H6.12495V9.7892H7.6562V12.8517H11.2916C11.5335 12.8517 11.7291 12.6562 11.7291 12.4142V8.39877H12.3224C12.5548 8.39877 12.7777 8.30717 12.9417 8.14174C13.2822 7.79994 13.2822 7.24623 12.9404 6.90443Z" fill="black" fill-opacity="0.85"/>
</svg>
