<svg width="10" height="14" viewBox="0 0 10 14" fill="none" xmlns="http://www.w3.org/2000/svg">
<path fill-rule="evenodd" clip-rule="evenodd" d="M5 8.29697e-05C4.86739 8.29697e-05 4.74022 0.0527611 4.64645 0.146529C4.55268 0.240297 4.5 0.367475 4.5 0.500083L4.5 12.2931L1.354 9.14608C1.26012 9.0522 1.13278 8.99945 1 8.99945C0.867227 8.99945 0.739888 9.0522 0.646002 9.14608C0.552115 9.23997 0.499371 9.36731 0.499371 9.50008C0.499371 9.63286 0.552115 9.7602 0.646002 9.85408L4.646 13.8541C4.69245 13.9006 4.74762 13.9376 4.80837 13.9628C4.86911 13.988 4.93423 14.001 5 14.001C5.06577 14.001 5.13089 13.988 5.19164 13.9628C5.25238 13.9376 5.30756 13.9006 5.354 13.8541L9.354 9.85408C9.40049 9.8076 9.43737 9.75241 9.46252 9.69167C9.48768 9.63093 9.50063 9.56583 9.50063 9.50008C9.50063 9.36731 9.44789 9.23997 9.354 9.14608C9.26012 9.0522 9.13278 8.99945 9 8.99945C8.86723 8.99945 8.73989 9.0522 8.646 9.14608L5.5 12.2931L5.5 0.500083C5.5 0.367475 5.44732 0.240297 5.35355 0.146529C5.25979 0.0527611 5.13261 8.29697e-05 5 8.29697e-05Z" fill="#FF9790"/>
</svg>
