<svg width="14" height="14" viewBox="0 0 14 14" fill="none" xmlns="http://www.w3.org/2000/svg">
<path d="M12.0312 2.51562H9.73438V1.64062C9.73438 1.58047 9.68516 1.53125 9.625 1.53125H8.85938C8.79922 1.53125 8.75 1.58047 8.75 1.64062V2.51562H5.25V1.64062C5.25 1.58047 5.20078 1.53125 5.14062 1.53125H4.375C4.31484 1.53125 4.26562 1.58047 4.26562 1.64062V2.51562H1.96875C1.72676 2.51562 1.53125 2.71113 1.53125 2.95312V12.0312C1.53125 12.2732 1.72676 12.4688 1.96875 12.4688H12.0312C12.2732 12.4688 12.4688 12.2732 12.4688 12.0312V2.95312C12.4688 2.71113 12.2732 2.51562 12.0312 2.51562ZM8.86348 5.83516L7.66445 8.0377H8.28926C8.36445 8.0377 8.42598 8.09922 8.42598 8.17441V8.46563C8.42598 8.54082 8.36445 8.60234 8.28926 8.60234H7.42246V9.0084H8.28926C8.36445 9.0084 8.42598 9.06992 8.42598 9.14512V9.43633C8.42598 9.51152 8.36445 9.57305 8.28926 9.57305H7.42246V10.2812C7.42246 10.3564 7.36094 10.418 7.28574 10.418H6.72109C6.6459 10.418 6.58437 10.3564 6.58437 10.2812V9.57305H5.72168C5.64648 9.57305 5.58496 9.51152 5.58496 9.43633V9.14512C5.58496 9.06992 5.64648 9.0084 5.72168 9.0084H6.58437V8.60234H5.72168C5.64648 8.60234 5.58496 8.54082 5.58496 8.46563V8.17441C5.58496 8.09922 5.64648 8.0377 5.72168 8.0377H6.33965L5.13652 5.83516C5.10098 5.76953 5.12422 5.68613 5.19121 5.64922C5.21172 5.63828 5.23359 5.63281 5.25684 5.63281H5.88574C5.9377 5.63281 5.98418 5.66152 6.00742 5.70801L7.0041 7.68086L8.00488 5.70801C8.01624 5.68546 8.03363 5.6665 8.0551 5.65323C8.07658 5.63996 8.10132 5.63289 8.12656 5.63281H8.7418C8.81699 5.63281 8.87852 5.69434 8.87852 5.76953C8.87988 5.79277 8.87441 5.81465 8.86348 5.83516Z" fill="black" fill-opacity="0.45"/>
</svg>
