<svg width="14" height="14" viewBox="0 0 14 14" fill="none" xmlns="http://www.w3.org/2000/svg">
<path d="M12.7486 0.750244H1.24863C0.972064 0.750244 0.748627 0.973682 0.748627 1.25024V12.7502C0.748627 13.0268 0.972064 13.2502 1.24863 13.2502H12.7486C13.0252 13.2502 13.2486 13.0268 13.2486 12.7502V1.25024C13.2486 0.973682 13.0252 0.750244 12.7486 0.750244ZM6.68613 9.62524C6.68613 9.69399 6.62988 9.75025 6.56113 9.75025H3.68613C3.61738 9.75025 3.56113 9.69399 3.56113 9.62524V8.87525C3.56113 8.80649 3.61738 8.75024 3.68613 8.75024H6.56113C6.62988 8.75024 6.68613 8.80649 6.68613 8.87525V9.62524ZM8.68613 7.37524C8.68613 7.44399 8.62988 7.50024 8.56113 7.50024H3.68613C3.61738 7.50024 3.56113 7.44399 3.56113 7.37524V6.62524C3.56113 6.55649 3.61738 6.50024 3.68613 6.50024H8.56113C8.62988 6.50024 8.68613 6.55649 8.68613 6.62524V7.37524ZM10.6861 5.12524C10.6861 5.19399 10.6299 5.25024 10.5611 5.25024H3.68613C3.61738 5.25024 3.56113 5.19399 3.56113 5.12524V4.37524C3.56113 4.30649 3.61738 4.25024 3.68613 4.25024H10.5611C10.6299 4.25024 10.6861 4.30649 10.6861 4.37524V5.12524Z" fill="black" fill-opacity="0.45"/>
</svg>
