<svg width="14" height="14" viewBox="0 0 14 14" fill="none" xmlns="http://www.w3.org/2000/svg">
<path d="M11.8521 2.32285L7.20644 0.739648C7.15039 0.720508 7.0752 0.710938 7 0.710938C6.9248 0.710938 6.84961 0.720508 6.79355 0.739648L2.14785 2.32285C2.03438 2.36113 1.94141 2.49238 1.94141 2.6127V9.20801C1.94141 9.32832 2.01934 9.48691 2.11367 9.56211L6.82637 13.2344C6.87422 13.2713 6.93574 13.2904 6.99863 13.2904C7.06152 13.2904 7.12441 13.2713 7.1709 13.2344L11.8836 9.56211C11.9779 9.48828 12.0559 9.32969 12.0559 9.20801V2.6127C12.0586 2.49238 11.9656 2.3625 11.8521 2.32285ZM9.49512 4.65801L6.58848 8.65977C6.56804 8.68773 6.5413 8.71049 6.51041 8.72617C6.47953 8.74185 6.44538 8.75003 6.41074 8.75003C6.3761 8.75003 6.34196 8.74185 6.31107 8.72617C6.28019 8.71049 6.25344 8.68773 6.23301 8.65977L4.50488 6.28086C4.45293 6.2084 4.50488 6.10723 4.59375 6.10723H5.34844C5.41816 6.10723 5.48516 6.14141 5.52617 6.19746L6.41074 7.41426L8.47383 4.57324C8.51484 4.51719 8.58047 4.48301 8.65156 4.48301H9.40625C9.49512 4.48438 9.54707 4.58555 9.49512 4.65801Z" fill="black" fill-opacity="0.45"/>
</svg>
