<svg width="14" height="14" viewBox="0 0 14 14" fill="none" xmlns="http://www.w3.org/2000/svg">
<path d="M5.09961 5.61914C4.70996 5.61914 4.39277 5.9377 4.39277 6.33008C4.39277 6.72246 4.70996 7.04102 5.09961 7.04102C5.48926 7.04102 5.80645 6.72246 5.80645 6.33008C5.80645 5.9377 5.48926 5.61914 5.09961 5.61914ZM12.6875 2.1875H1.3125C1.07051 2.1875 0.875 2.38301 0.875 2.625V11.375C0.875 11.617 1.07051 11.8125 1.3125 11.8125H12.6875C12.9295 11.8125 13.125 11.617 13.125 11.375V2.625C13.125 2.38301 12.9295 2.1875 12.6875 2.1875ZM8.3125 5.74219C8.3125 5.68203 8.32617 5.63281 8.34395 5.63281H10.0311C10.0488 5.63281 10.0625 5.68203 10.0625 5.74219V6.39844C10.0625 6.45859 10.0488 6.50781 10.0311 6.50781H8.34395C8.32617 6.50781 8.3125 6.45859 8.3125 6.39844V5.74219ZM7.13672 9.20117H6.53652C6.4791 9.20117 6.43262 9.15605 6.42852 9.09863C6.37656 8.4082 5.79961 7.86133 5.09961 7.86133C4.39961 7.86133 3.82266 8.4082 3.7707 9.09863C3.7666 9.15605 3.72012 9.20117 3.6627 9.20117H3.0625C3.04766 9.20119 3.03298 9.19819 3.01934 9.19236C3.0057 9.18652 2.99339 9.17797 2.98316 9.16723C2.97293 9.15649 2.96499 9.14377 2.95983 9.12987C2.95466 9.11596 2.95238 9.10114 2.95312 9.08633C2.99141 8.35762 3.39062 7.72324 3.97305 7.3623C3.7162 7.07997 3.57428 6.71176 3.5752 6.33008C3.5752 5.48379 4.25742 4.79883 5.09824 4.79883C5.93906 4.79883 6.62129 5.48379 6.62129 6.33008C6.62129 6.72793 6.4709 7.08887 6.22344 7.3623C6.80723 7.72461 7.20508 8.35762 7.24336 9.08633C7.24883 9.14922 7.19961 9.20117 7.13672 9.20117ZM10.9498 8.47656H8.40957C8.35625 8.47656 8.3125 8.42734 8.3125 8.36719V7.71094C8.3125 7.65078 8.35625 7.60156 8.40957 7.60156H10.9484C11.0018 7.60156 11.0455 7.65078 11.0455 7.71094V8.36719H11.0469C11.0469 8.42734 11.0031 8.47656 10.9498 8.47656Z" fill="black" fill-opacity="0.45"/>
</svg>
