<svg width="14" height="14" viewBox="0 0 14 14" fill="none" xmlns="http://www.w3.org/2000/svg">
<path d="M12.0312 2.51562H9.73438V1.64062C9.73438 1.58047 9.68516 1.53125 9.625 1.53125H8.85938C8.79922 1.53125 8.75 1.58047 8.75 1.64062V2.51562H5.25V1.64062C5.25 1.58047 5.20078 1.53125 5.14062 1.53125H4.375C4.31484 1.53125 4.26562 1.58047 4.26562 1.64062V2.51562H1.96875C1.72676 2.51562 1.53125 2.71113 1.53125 2.95312V12.0312C1.53125 12.2732 1.72676 12.4688 1.96875 12.4688H12.0312C12.2732 12.4688 12.4688 12.2732 12.4688 12.0312V2.95312C12.4688 2.71113 12.2732 2.51562 12.0312 2.51562ZM9.49512 5.91582L6.58848 9.91758C6.56804 9.94555 6.5413 9.9683 6.51041 9.98398C6.47953 9.99967 6.44538 10.0078 6.41074 10.0078C6.3761 10.0078 6.34196 9.99967 6.31107 9.98398C6.28019 9.9683 6.25344 9.94555 6.23301 9.91758L4.50488 7.53867C4.45293 7.46621 4.50488 7.36504 4.59375 7.36504H5.34844C5.41816 7.36504 5.48516 7.39922 5.52617 7.45527L6.41074 8.67207L8.47383 5.83105C8.51484 5.775 8.58047 5.74082 8.65156 5.74082H9.40625C9.49512 5.74219 9.54707 5.84336 9.49512 5.91582Z" fill="black" fill-opacity="0.45"/>
</svg>
