<svg width="10" height="14" viewBox="0 0 10 14" fill="none" xmlns="http://www.w3.org/2000/svg">
<path fill-rule="evenodd" clip-rule="evenodd" d="M5 13.9999C5.13261 13.9999 5.25978 13.9472 5.35355 13.8535C5.44732 13.7597 5.5 13.6325 5.5 13.4999V1.70692L8.646 4.85392C8.73988 4.9478 8.86722 5.00055 9 5.00055C9.13277 5.00055 9.26011 4.9478 9.354 4.85392C9.44788 4.76003 9.50063 4.63269 9.50063 4.49992C9.50063 4.36714 9.44788 4.2398 9.354 4.14592L5.354 0.145917C5.30755 0.099354 5.25238 0.0624111 5.19163 0.0372047C5.13089 0.0119982 5.06577 -0.000976562 5 -0.000976562C4.93423 -0.000976562 4.86911 0.0119982 4.80836 0.0372047C4.74762 0.0624111 4.69244 0.099354 4.646 0.145917L0.645998 4.14592C0.59951 4.1924 0.562634 4.24759 0.537475 4.30833C0.512316 4.36907 0.499367 4.43417 0.499367 4.49992C0.499367 4.63269 0.552112 4.76003 0.645998 4.85392C0.739885 4.9478 0.867223 5.00055 0.999998 5.00055C1.13277 5.00055 1.26011 4.9478 1.354 4.85392L4.5 1.70692V13.4999C4.5 13.6325 4.55268 13.7597 4.64645 13.8535C4.74021 13.9472 4.86739 13.9999 5 13.9999Z" fill="#4ECB71"/>
</svg>
